# xmcd CD database file
#
# Track frame offsets:
#	182
#	13907
#	29055
#	44327
#	57145
#	70575
#	84040
#	97057
#	109695
#	122640
#	136480
#	150730
#	165335
#	178400
#	192405
#	206212
#	220032
#	234237
#
# Disc length: 3302 seconds
#
# Revision: 2
# Processed by: cddbd v1.5.2PL0 Copyright (c) Steve Scherf et al.
# Submitted via: CDex 1.51
#
DISCID=f90ce412
DTITLE=Roosevelt Sykes - Roosevelt Sykes: 1929-1942
DYEAR=2000
DGENRE=Blues
TTITLE0=Boot That Thing     
TTITLE1=The Cannon Ball 
TTITLE2=Jet Black Snake 
TTITLE3=Sister Kelly Blues 
TTITLE4=Hard Lead Pencil 
TTITLE5=Sad Yas Yas Yas 
TTITLE6=The Train Is Coming 
TTITLE7=Down on My Knees 
TTITLE8=She's Got What It Takes
TTITLE9=Yellow Yam Blues 
TTITLE10=Pistol Shootin' Blues 
TTITLE11=47th Street Jive 
TTITLE12=Just Hanging Around 
TTITLE13=Keep Your Hands off Her 
TTITLE14=Skin and Bones Blues 
TTITLE15=Third Degree Blues
TTITLE16=Pay Day Blues   
TTITLE17=Love Has Something to Say 
EXTD=YEAR: 2000
EXTT0=
EXTT1=
EXTT2=
EXTT3=
EXTT4=
EXTT5=
EXTT6=
EXTT7=
EXTT8=
EXTT9=
EXTT10=
EXTT11=
EXTT12=
EXTT13=
EXTT14=
EXTT15=
EXTT16=
EXTT17=
PLAYORDER=
